<svg xmlns="http://www.w3.org/2000/svg" width="75.13" height="72" viewBox="0 0 75.13 72"><defs><style>.a{fill:#acacac;}</style></defs><path class="a" d="M76.13,41.13A7.835,7.835,0,0,0,68.3,33.3h-3.13v-4.7a26.609,26.609,0,1,0-53.217,0v4.7H8.826A7.835,7.835,0,0,0,1,41.13v9.391a7.835,7.835,0,0,0,7.826,7.826h9.391V33.3h-3.13v-4.7a23.478,23.478,0,0,1,46.957,0v4.7h-3.13V58.348h3.13v7.826a4.7,4.7,0,0,1-4.7,4.7H41.7V74H57.348a7.835,7.835,0,0,0,7.826-7.826V58.348H68.3a7.835,7.835,0,0,0,7.826-7.826ZM15.087,55.217H8.826a4.7,4.7,0,0,1-4.7-4.7V41.13a4.7,4.7,0,0,1,4.7-4.7h6.261ZM73,50.522a4.7,4.7,0,0,1-4.7,4.7H62.043V36.435H68.3a4.7,4.7,0,0,1,4.7,4.7Z" transform="translate(-1 -2)"/></svg>