<svg xmlns="http://www.w3.org/2000/svg" width="69.783" height="76" viewBox="0 0 69.783 76"><defs><style>.a{fill:#acacac;}</style></defs><path class="a" d="M100.257,17H76.805a6.049,6.049,0,0,0-6.042,6.042V40.8a6.049,6.049,0,0,0,6.042,6.042h2.1v6.63a1.587,1.587,0,0,0,.938,1.447,1.555,1.555,0,0,0,.652.143,1.669,1.669,0,0,0,1.065-.4l8.729-7.807h9.953a6.049,6.049,0,0,0,6.042-6.042V23.042A6.026,6.026,0,0,0,100.257,17Zm2.862,23.8a2.87,2.87,0,0,1-2.862,2.862H89.684a1.638,1.638,0,0,0-1.065.4l-6.535,5.851V45.254a1.6,1.6,0,0,0-1.59-1.59H76.805A2.87,2.87,0,0,1,73.943,40.8V23.042a2.87,2.87,0,0,1,2.862-2.862h23.452a2.87,2.87,0,0,1,2.862,2.862ZM58.839,67.147a11.67,11.67,0,1,0-4.42,0A20.164,20.164,0,0,0,36.5,87.165V93H76.774V87.165A20.151,20.151,0,0,0,58.839,67.147ZM48.154,55.684a8.49,8.49,0,1,1,8.49,8.49A8.49,8.49,0,0,1,48.154,55.684ZM73.594,89.82H39.68V87.165a16.965,16.965,0,1,1,33.93,0V89.82Z" transform="translate(-36.5 -17)"/></svg>