<svg xmlns="http://www.w3.org/2000/svg" width="69" height="69" viewBox="0 0 69 69"><defs><style>.a{fill:#1877f2;}.b{fill:#fff;}</style></defs><path class="a" d="M69,34.5A34.5,34.5,0,1,0,29.109,68.581V44.473H20.35V34.5h8.76V26.9c0-8.647,5.151-13.423,13.031-13.423a53.053,53.053,0,0,1,7.723.674v8.49h-4.35c-4.286,0-5.622,2.659-5.622,5.388V34.5h9.568l-1.53,9.973H39.891V68.581A34.508,34.508,0,0,0,69,34.5Z"/><path class="b" d="M329.58,231l1.53-9.973h-9.568v-6.472c0-2.728,1.337-5.388,5.622-5.388h4.35v-8.49a53.053,53.053,0,0,0-7.723-.674c-7.88,0-13.031,4.776-13.031,13.423v7.6H302V231h8.76V255.1a34.864,34.864,0,0,0,10.781,0V231Z" transform="translate(-281.65 -186.523)"/></svg>