<svg xmlns="http://www.w3.org/2000/svg" width="52.389" height="53.458" viewBox="0 0 52.389 53.458"><defs><style>.a{fill:#ea4335;}.b{fill:#4285f4;}.c{fill:#fbbc05;}.d{fill:#34a853;}</style></defs><g transform="translate(-24.867 -24.867)"><path class="a" d="M38.587,23.935a14.815,14.815,0,0,1,10.335,3.98l7.543-7.365A25.681,25.681,0,0,0,38.587,13.6,26.709,26.709,0,0,0,14.709,28.33l8.642,6.712A16.157,16.157,0,0,1,38.587,23.935Z" transform="translate(13.009 11.267)"/><path class="b" d="M49.66,27.569A22.887,22.887,0,0,0,49.1,22.1H24v9.919H38.731A13.063,13.063,0,0,1,33.266,40.7L41.7,47.23C46.749,42.567,49.66,35.707,49.66,27.569Z" transform="translate(27.596 24.621)"/><path class="c" d="M25.123,36.616a16.452,16.452,0,0,1-.891-5.286,17.291,17.291,0,0,1,.861-5.286l-8.642-6.712a26.673,26.673,0,0,0,0,24Z" transform="translate(11.267 20.266)"/><path class="d" d="M38.569,47.5c7.217,0,13.275-2.376,17.7-6.474l-8.435-6.534a15.82,15.82,0,0,1-9.266,2.673A16.091,16.091,0,0,1,23.363,26.057l-8.642,6.712A26.664,26.664,0,0,0,38.569,47.5Z" transform="translate(13.027 30.826)"/></g></svg>