<svg xmlns="http://www.w3.org/2000/svg" width="79.416" height="88.593" viewBox="0 0 79.416 88.593"><defs><style>.a,.b{fill:#acacac;}.b{stroke:#acacac;stroke-width:2px;}</style></defs><g transform="translate(-772 -529)"><path class="a" d="M98.127,17H76.369a5.612,5.612,0,0,0-5.605,5.606V39.083a5.612,5.612,0,0,0,5.605,5.605h1.947V50.84a1.472,1.472,0,0,0,.87,1.342,1.443,1.443,0,0,0,.6.133,1.549,1.549,0,0,0,.988-.369l8.1-7.243h9.234a5.612,5.612,0,0,0,5.605-5.605V22.606A5.591,5.591,0,0,0,98.127,17Zm2.655,22.083a2.663,2.663,0,0,1-2.655,2.655h-9.81a1.519,1.519,0,0,0-.988.369l-6.063,5.428V43.213a1.479,1.479,0,0,0-1.475-1.475H76.369a2.663,2.663,0,0,1-2.655-2.655V22.606a2.663,2.663,0,0,1,2.655-2.655H98.127a2.663,2.663,0,0,1,2.655,2.655Z" transform="translate(747.697 512)"/><g transform="translate(773 549.44)"><path class="b" d="M55.037,67.9a.587.587,0,0,1-.587-.587V63.637a.587.587,0,1,1,1.174,0v3.674a.587.587,0,0,1-.587.587Z" transform="translate(-34.635 -30.034)"/><path class="b" d="M21.277,99.778a.587.587,0,0,1-.587-.587V87.07a13.03,13.03,0,0,1,6.556-10.048L40.8,69.392a.587.587,0,0,1,.552,0l4.7,2.348,4.7-2.348a.587.587,0,0,1,.552,0l13.558,7.63A13.042,13.042,0,0,1,71.5,88.373V99.132a.587.587,0,0,1-.587.587l-49.673.053Zm.587-12.613V98.6l48.5-.053V88.373a11.868,11.868,0,0,0-6.057-10.33L51.029,70.565l-4.7,2.348a.587.587,0,0,1-.528,0l-4.7-2.348L27.821,78.043a11.856,11.856,0,0,0-5.957,9.115Z" transform="translate(-20.69 -32.625)"/><path class="b" d="M60.983,63.7a.587.587,0,0,1-.2-1.139l6.779-2.424a.657.657,0,0,0,.411-.8L64.569,47.4a.587.587,0,0,1,1.127-.323L69.1,59.02a1.837,1.837,0,0,1-1.174,2.225l-6.744,2.424A.587.587,0,0,1,60.983,63.7Zm-19.07,0a.587.587,0,0,1-.2-.035L34.934,61.25a1.831,1.831,0,0,1-1.145-2.23L37.2,47.081a.587.587,0,0,1,1.127.323l-3.4,11.938a.657.657,0,0,0,.411.8L42.1,62.565a.587.587,0,0,1-.2,1.139Z" transform="translate(-26.071 -23.274)"/><path class="b" d="M51.7,52.693A14.186,14.186,0,0,1,37.919,42.128a3.7,3.7,0,0,1-.493-7.349V33.447a.587.587,0,1,1,1.174,0V35.29a.587.587,0,0,1-.587.587,2.524,2.524,0,0,0,0,5.048,1.327,1.327,0,0,0,.182,0H38.3a.587.587,0,0,1,.64.452,13.083,13.083,0,0,0,25.5,0,.587.587,0,0,1,.64-.452h.112a1.356,1.356,0,0,0,.182,0,2.524,2.524,0,0,0,0-5.048.587.587,0,1,1,0-1.174,3.7,3.7,0,0,1,.094,7.39A14.186,14.186,0,0,1,51.7,52.693Zm0,20.073a9.849,9.849,0,0,1-8.91-5.558l-2.2-4.449a.588.588,0,0,1,1.056-.517l2.178,4.449a8.74,8.74,0,0,0,15.707,0l3.668-7.5L56.655,55.5l-4.7,2.348a.587.587,0,0,1-.528,0l-4.7-2.348-7.043,3.962a.589.589,0,1,1-.587-1.021l7.313-4.109a.587.587,0,0,1,.552,0l4.7,2.348,4.7-2.348a.587.587,0,0,1,.552,0l7.313,4.109a.587.587,0,0,1,.241.769L60.6,67.208A9.849,9.849,0,0,1,51.7,72.766Z" transform="translate(-26.316 -17.564)"/><path class="b" d="M57.114,54.99a.587.587,0,0,1-.587-.587V50.729a.587.587,0,1,1,1.174,0V54.4a.587.587,0,0,1-.587.587ZM35.967,84.22a.587.587,0,0,1-.587-.587V71.2a.587.587,0,1,1,1.174,0V83.633A.587.587,0,0,1,35.967,84.22Zm32.341,0a.587.587,0,0,1-.587-.587V71.2a.587.587,0,0,1,1.174,0V83.633A.587.587,0,0,1,68.307,84.22ZM46.45,40.44a4.32,4.32,0,1,1,4.32-4.32,4.32,4.32,0,0,1-4.32,4.32Zm0-7.466A3.146,3.146,0,1,0,49.6,36.12,3.146,3.146,0,0,0,46.45,32.974ZM57.825,40.44a4.32,4.32,0,1,1,4.332-4.32,4.32,4.32,0,0,1-4.332,4.32Zm0-7.466a3.146,3.146,0,1,0,2.232.917A3.146,3.146,0,0,0,57.825,32.974ZM52.143,45.482a5.558,5.558,0,0,1-3.486-1.238.587.587,0,0,1,.734-.916,4.367,4.367,0,0,0,5.482,0l.728.916A5.523,5.523,0,0,1,52.143,45.482Z" transform="translate(-26.758 -17.126)"/><path class="b" d="M44.539,37.174H40.207a.587.587,0,1,1,0-1.174h4.332a.587.587,0,0,1,0,1.174Zm23.032,0H63.215a.587.587,0,1,1,0-1.174H67.57a.587.587,0,1,1,0,1.174Zm-11.5,0H51.711a.587.587,0,1,1,0-1.174h4.355a.587.587,0,1,1,0,1.174ZM53.889,74.063a.587.587,0,0,1-.587-.587V58.644a.587.587,0,0,1,1.174,0V73.476A.587.587,0,0,1,53.889,74.063Z" transform="translate(-28.509 -18.861)"/><path class="b" d="M81.126,28.173a.587.587,0,0,1-.428-.188L72.61,19.3a.587.587,0,0,1,0-.828l4.355-4.109a.587.587,0,0,1,.4-.158,4.326,4.326,0,0,1,4.32,4.32v9.057a.587.587,0,0,1-.563.587Zm-7.26-9.244,6.674,7.184V18.53A3.146,3.146,0,0,0,77.6,15.4Z" transform="translate(-42.065 -9.86)"/><path class="b" d="M36.947,21.215a.587.587,0,0,1-.587-.587v-.8a8.784,8.784,0,0,1,.041-1.039c-.088-.722-.446-5.711,5.957-9.937A12.7,12.7,0,0,1,49.4,6.8h9.737a3.686,3.686,0,0,1,2.489,6.415l-3.146,2.864a.587.587,0,0,1-.258.135l-21.13,4.977ZM49.384,7.968A11.528,11.528,0,0,0,43,9.852h0c-6.134,4.05-5.441,8.8-5.435,8.839a.587.587,0,0,1,0,.141c0,.329-.041.669-.041,1V19.9l20.279-4.766,3.029-2.759a2.524,2.524,0,0,0-1.7-4.39Zm-6.7,1.373Z" transform="translate(-27.163 -6.799)"/></g></g></svg>